Book.ufo
<glyph name="five" format="1">
  <advance width="564"/>
  <unicode hex="0035"/>
  <outline>
    <contour>
      <point x="524" y="230" type="curve" smooth="yes"/>
      <point x="524" y="71"/>
      <point x="414" y="-10"/>
      <point x="279" y="-10" type="curve" smooth="yes"/>
      <point x="150" y="-10"/>
      <point x="76" y="57"/>
      <point x="30" y="137" type="curve"/>
      <point x="102" y="186" type="line"/>
      <point x="133" y="126"/>
      <point x="202" y="70"/>
      <point x="279" y="70" type="curve" smooth="yes"/>
      <point x="379" y="70"/>
      <point x="436" y="134"/>
      <point x="436" y="230" type="curve" smooth="yes"/>
      <point x="436" y="326"/>
      <point x="369" y="390"/>
      <point x="279" y="390" type="curve" smooth="yes"/>
      <point x="212" y="390"/>
      <point x="171" y="377"/>
      <point x="100" y="327" type="curve"/>
      <point x="150" y="393" type="line"/>
      <point x="196" y="443"/>
      <point x="256" y="466"/>
      <point x="315" y="466" type="curve" smooth="yes"/>
      <point x="435" y="466"/>
      <point x="524" y="369"/>
    </contour>
    <contour>
      <point x="258" y="625" type="line"/>
      <point x="205" y="417" type="line"/>
      <point x="100" y="327" type="line"/>
      <point x="192" y="700" type="line"/>
      <point x="522" y="700" type="line"/>
      <point x="522" y="625" type="line"/>
    </contour>
  </outline>
</glyph>
<glyph name="M" format="1">
  <advance width="810"/>
  <unicode hex="004D"/>
  <outline>
    <contour>
      <point x="630" y="505" type="line"/>
      <point x="685" y="735" type="line"/>
      <point x="770" y="0" type="line"/>
      <point x="685" y="0" type="line"/>
    </contour>
    <contour>
      <point x="125" y="735" type="line"/>
      <point x="180" y="505" type="line"/>
      <point x="125" y="0" type="line"/>
      <point x="40" y="0" type="line"/>
    </contour>
    <contour>
      <point x="685" y="735" type="line"/>
      <point x="685" y="565" type="line"/>
      <point x="405" y="65" type="line"/>
      <point x="125" y="565" type="line"/>
      <point x="125" y="735" type="line"/>
      <point x="405" y="228" type="line"/>
    </contour>
  </outline>
</glyph>
<glyph name="backslash" format="1">
  <advance width="515"/>
  <unicode hex="005C"/>
  <outline>
    <contour>
      <point x="15" y="700" type="line"/>
      <point x="100" y="700" type="line"/>
      <point x="500" y="0" type="line"/>
      <point x="415" y="0" type="line"/>
    </contour>
  </outline>
</glyph>
<glyph name="i" format="1">
  <advance width="260"/>
  <unicode hex="0069"/>
  <outline>
    <contour>
      <point x="75" y="650" type="curve" smooth="yes"/>
      <point x="75" y="680"/>
      <point x="100" y="705"/>
      <point x="130" y="705" type="curve" smooth="yes"/>
      <point x="160" y="705"/>
      <point x="185" y="680"/>
      <point x="185" y="650" type="curve" smooth="yes"/>
      <point x="185" y="620"/>
      <point x="160" y="595"/>
      <point x="130" y="595" type="curve" smooth="yes"/>
      <point x="100" y="595"/>
      <point x="75" y="620"/>
    </contour>
    <contour>
      <point x="90" y="460" type="line"/>
      <point x="170" y="460" type="line"/>
      <point x="170" y="0" type="line"/>
      <point x="90" y="0" type="line"/>
    </contour>
  </outline>
</glyph>
<glyph name="j" format="1">
  <advance width="250"/>
  <unicode hex="006A"/>
  <outline>
    <contour>
      <point x="65" y="650" type="curve" smooth="yes"/>
      <point x="65" y="680"/>
      <point x="90" y="705"/>
      <point x="120" y="705" type="curve" smooth="yes"/>
      <point x="150" y="705"/>
      <point x="175" y="680"/>
      <point x="175" y="650" type="curve" smooth="yes"/>
      <point x="175" y="620"/>
      <point x="150" y="595"/>
      <point x="120" y="595" type="curve" smooth="yes"/>
      <point x="90" y="595"/>
      <point x="65" y="620"/>
    </contour>
    <contour>
      <point x="-17" y="-114" type="line"/>
      <point x="-3" y="-137"/>
      <point x="16" y="-140"/>
      <point x="32" y="-140" type="curve" smooth="yes"/>
      <point x="62" y="-140"/>
      <point x="80" y="-116"/>
      <point x="80" y="-50" type="curve" smooth="yes"/>
      <point x="80" y="460" type="line"/>
      <point x="160" y="460" type="line"/>
      <point x="160" y="-60" type="line" smooth="yes"/>
      <point x="160" y="-169"/>
      <point x="111" y="-220"/>
      <point x="27" y="-220" type="curve" smooth="yes"/>
      <point x="-16" y="-220"/>
      <point x="-46" y="-200"/>
      <point x="-61" y="-180" type="curve"/>
    </contour>
  </outline>
</glyph>
<glyph name="s" format="1">
  <advance width="403"/>
  <unicode hex="0073"/>
  <outline>
    <contour>
      <point x="88" y="162" type="line"/>
      <point x="120" y="106"/>
      <point x="171" y="65"/>
      <point x="215" y="65" type="curve" smooth="yes"/>
      <point x="258" y="65"/>
      <point x="290" y="82"/>
      <point x="290" y="121" type="curve" smooth="yes"/>
      <point x="290" y="169"/>
      <point x="239" y="190"/>
      <point x="186" y="211" type="curve" smooth="yes"/>
      <point x="122.987" y="235.968"/>
      <point x="54" y="259"/>
      <point x="54" y="346" type="curve" smooth="yes"/>
      <point x="54" y="432"/>
      <point x="129" y="470"/>
      <point x="203" y="470" type="curve" smooth="yes"/>
      <point x="276" y="470"/>
      <point x="341" y="431"/>
      <point x="369" y="380" type="curve"/>
      <point x="305" y="339" type="line"/>
      <point x="283" y="370"/>
      <point x="241" y="397"/>
      <point x="204" y="397" type="curve" smooth="yes"/>
      <point x="164" y="397"/>
      <point x="132" y="385"/>
      <point x="132" y="349" type="curve" smooth="yes"/>
      <point x="132" y="305"/>
      <point x="195" y="291"/>
      <point x="246" y="270" type="curve" smooth="yes"/>
      <point x="311" y="243"/>
      <point x="373" y="207"/>
      <point x="373" y="130" type="curve" smooth="yes"/>
      <point x="373" y="31"/>
      <point x="304" y="-10"/>
      <point x="215" y="-10" type="curve" smooth="yes"/>
      <point x="130" y="-10"/>
      <point x="59" y="48"/>
      <point x="25" y="123" type="curve"/>
    </contour>
  </outline>
</glyph>
<glyph name="braceleft" format="1">
  <advance width="311"/>
  <unicode hex="007B"/>
  <outline>
    <contour>
      <point x="178" y="660" type="curve" smooth="yes"/>
      <point x="178" y="490" type="line" smooth="yes"/>
      <point x="178" y="401"/>
      <point x="174" y="280"/>
      <point x="65" y="280" type="curve"/>
      <point x="65" y="300" type="line"/>
      <point x="174" y="300"/>
      <point x="178" y="179"/>
      <point x="178" y="90" type="curve" smooth="yes"/>
      <point x="178" y="-80" type="line" smooth="yes"/>
      <point x="178" y="-106"/>
      <point x="196" y="-130"/>
      <point x="226" y="-130" type="curve" smooth="yes"/>
      <point x="261" y="-130" type="line"/>
      <point x="261" y="-200" type="line"/>
      <point x="201" y="-200" type="line" smooth="yes"/>
      <point x="157" y="-200"/>
      <point x="98" y="-159"/>
      <point x="98" y="-60" type="curve" smooth="yes"/>
      <point x="98" y="150" type="line" smooth="yes"/>
      <point x="98" y="226"/>
      <point x="80" y="250"/>
      <point x="50" y="260" type="curve"/>
      <point x="50" y="320" type="line"/>
      <point x="80" y="330"/>
      <point x="98" y="354"/>
      <point x="98" y="430" type="curve" smooth="yes"/>
      <point x="98" y="640" type="line" smooth="yes"/>
      <point x="98" y="739"/>
      <point x="157" y="780"/>
      <point x="201" y="780" type="curve" smooth="yes"/>
      <point x="261" y="780" type="line"/>
      <point x="261" y="710" type="line"/>
      <point x="226" y="710" type="line" smooth="yes"/>
      <point x="196" y="710"/>
      <point x="178" y="686"/>
    </contour>
  </outline>
</glyph>
<glyph name="cent" format="1">
  <advance width="580"/>
  <unicode hex="00A2"/>
  <outline>
    <contour>
      <point x="280" y="38" type="line"/>
      <point x="344" y="38" type="line"/>
      <point x="344" y="-112" type="line"/>
      <point x="280" y="-112" type="line"/>
    </contour>
    <contour>
      <point x="162" y="230" type="curve" smooth="yes"/>
      <point x="162" y="134"/>
      <point x="229" y="65"/>
      <point x="319" y="65" type="curve" smooth="yes"/>
      <point x="393" y="65"/>
      <point x="458" y="104"/>
      <point x="479" y="149" type="curve"/>
      <point x="479" y="49" type="line"/>
      <point x="447" y="11"/>
      <point x="382" y="-10"/>
      <point x="319" y="-10" type="curve" smooth="yes"/>
      <point x="184" y="-10"/>
      <point x="81" y="91"/>
      <point x="81" y="230" type="curve" smooth="yes"/>
      <point x="81" y="369"/>
      <point x="184" y="470"/>
      <point x="319" y="470" type="curve" smooth="yes"/>
      <point x="382" y="470"/>
      <point x="447" y="448"/>
      <point x="479" y="411" type="curve"/>
      <point x="479" y="311" type="line"/>
      <point x="458" y="356"/>
      <point x="393" y="395"/>
      <point x="319" y="395" type="curve" smooth="yes"/>
      <point x="229" y="395"/>
      <point x="162" y="326"/>
    </contour>
    <contour>
      <point x="280" y="578" type="line"/>
      <point x="344" y="578" type="line"/>
      <point x="344" y="428" type="line"/>
      <point x="280" y="428" type="line"/>
    </contour>
  </outline>
</glyph>
<glyph name="dieresis" format="1">
  <advance width="470"/>
  <unicode hex="00A8"/>
  <outline>
    <contour>
      <point x="280" y="660" type="curve" smooth="yes"/>
      <point x="280" y="690"/>
      <point x="305" y="715"/>
      <point x="335" y="715" type="curve" smooth="yes"/>
      <point x="365" y="715"/>
      <point x="390" y="690"/>
      <point x="390" y="660" type="curve" smooth="yes"/>
      <point x="390" y="630"/>
      <point x="365" y="605"/>
      <point x="335" y="605" type="curve" smooth="yes"/>
      <point x="305" y="605"/>
      <point x="280" y="630"/>
    </contour>
    <contour>
      <point x="80" y="660" type="curve" smooth="yes"/>
      <point x="80" y="690"/>
      <point x="105" y="715"/>
      <point x="135" y="715" type="curve" smooth="yes"/>
      <point x="165" y="715"/>
      <point x="190" y="690"/>
      <point x="190" y="660" type="curve" smooth="yes"/>
      <point x="190" y="630"/>
      <point x="165" y="605"/>
      <point x="135" y="605" type="curve" smooth="yes"/>
      <point x="105" y="605"/>
      <point x="80" y="630"/>
    </contour>
  </outline>
</glyph>
<glyph name="guillemotleft" format="1">
  <advance width="510"/>
  <unicode hex="00AB"/>
  <outline>
    <contour>
      <point x="110" y="235" type="line"/>
      <point x="40" y="255" type="line"/>
      <point x="230" y="490" type="line"/>
      <point x="280" y="445" type="line"/>
    </contour>
    <contour>
      <point x="40" y="255" type="line"/>
      <point x="110" y="285" type="line"/>
      <point x="280" y="65" type="line"/>
      <point x="230" y="20" type="line"/>
    </contour>
    <contour>
      <point x="270" y="235" type="line"/>
      <point x="200" y="255" type="line"/>
      <point x="390" y="490" type="line"/>
      <point x="440" y="445" type="line"/>
    </contour>
    <contour>
      <point x="200" y="255" type="line"/>
      <point x="270" y="285" type="line"/>
      <point x="440" y="65" type="line"/>
      <point x="390" y="20" type="line"/>
    </contour>
  </outline>
</glyph>
<glyph name="uni00B3" format="1">
  <advance width="312"/>
  <unicode hex="00B3"/>
  <outline>
    <contour>
      <point x="141" y="487" type="curve"/>
      <point x="141" y="520" type="line"/>
      <point x="195" y="520"/>
      <point x="226" y="553"/>
      <point x="226" y="593" type="curve" smooth="yes"/>
      <point x="226" y="633"/>
      <point x="204" y="660"/>
      <point x="162" y="660" type="curve" smooth="yes"/>
      <point x="123" y="660"/>
      <point x="92" y="633"/>
      <point x="92" y="596" type="curve"/>
      <point x="43" y="596" type="line"/>
      <point x="43" y="661"/>
      <point x="93" y="706"/>
      <point x="162" y="706" type="curve" smooth="yes"/>
      <point x="234" y="706"/>
      <point x="278" y="653"/>
      <point x="278" y="594" type="curve" smooth="yes"/>
      <point x="278" y="535"/>
      <point x="222" y="487"/>
    </contour>
    <contour>
      <point x="159" y="274" type="curve" smooth="yes"/>
      <point x="78" y="274"/>
      <point x="25" y="326"/>
      <point x="25" y="391" type="curve"/>
      <point x="77" y="391" type="line"/>
      <point x="77" y="351"/>
      <point x="111" y="322"/>
      <point x="159" y="322" type="curve" smooth="yes"/>
      <point x="207" y="322"/>
      <point x="238" y="351"/>
      <point x="238" y="397" type="curve" smooth="yes"/>
      <point x="238" y="449"/>
      <point x="195" y="475"/>
      <point x="141" y="475" type="curve"/>
      <point x="141" y="508" type="line"/>
      <point x="222" y="508"/>
      <point x="290" y="474"/>
      <point x="290" y="391" type="curve" smooth="yes"/>
      <point x="290" y="320"/>
      <point x="234" y="274"/>
    </contour>
  </outline>
</glyph>
<glyph name="onehalf" format="1">
  <advance width="819"/>
  <unicode hex="00BD"/>
  <outline>
    <contour>
      <point x="618" y="700" type="line"/>
      <point x="683" y="700" type="line"/>
      <point x="163" y="0" type="line"/>
      <point x="98" y="0" type="line"/>
    </contour>
    <contour>
      <point x="30" y="611" type="line"/>
      <point x="30" y="664" type="line"/>
      <point x="174" y="700" type="line"/>
      <point x="174" y="274" type="line"/>
      <point x="123" y="274" type="line"/>
      <point x="123" y="639" type="line"/>
    </contour>
    <contour>
      <point x="493" y="2" type="line"/>
      <point x="691" y="214" type="line" smooth="yes"/>
      <point x="719" y="243"/>
      <point x="735" y="272"/>
      <point x="735" y="306" type="curve" smooth="yes"/>
      <point x="735" y="343"/>
      <point x="710" y="381"/>
      <point x="659" y="381" type="curve" smooth="yes"/>
      <point x="605" y="381"/>
      <point x="568" y="342"/>
      <point x="568" y="278" type="curve"/>
      <point x="517" y="278" type="line"/>
      <point x="517" y="367"/>
      <point x="572" y="429"/>
      <point x="659" y="429" type="curve" smooth="yes"/>
      <point x="751" y="429"/>
      <point x="787" y="358"/>
      <point x="787" y="302" type="curve" smooth="yes"/>
      <point x="787" y="259"/>
      <point x="764" y="220"/>
      <point x="731" y="186" type="curve" smooth="yes"/>
      <point x="598" y="50" type="line"/>
      <point x="789" y="50" type="line"/>
      <point x="789" y="2" type="line"/>
    </contour>
  </outline>
</glyph>
<glyph name="threequarters" format="1">
  <advance width="820"/>
  <unicode hex="00BE"/>
  <outline>
    <contour>
      <point x="685" y="700" type="line"/>
      <point x="750" y="700" type="line"/>
      <point x="230" y="0" type="line"/>
      <point x="165" y="0" type="line"/>
    </contour>
    <contour>
      <point x="146" y="487" type="curve"/>
      <point x="146" y="520" type="line"/>
      <point x="200" y="520"/>
      <point x="231" y="553"/>
      <point x="231" y="593" type="curve" smooth="yes"/>
      <point x="231" y="633"/>
      <point x="209" y="660"/>
      <point x="167" y="660" type="curve" smooth="yes"/>
      <point x="128" y="660"/>
      <point x="97" y="633"/>
      <point x="97" y="596" type="curve"/>
      <point x="48" y="596" type="line"/>
      <point x="48" y="661"/>
      <point x="98" y="706"/>
      <point x="167" y="706" type="curve" smooth="yes"/>
      <point x="239" y="706"/>
      <point x="283" y="653"/>
      <point x="283" y="594" type="curve" smooth="yes"/>
      <point x="283" y="535"/>
      <point x="227" y="487"/>
    </contour>
    <contour>
      <point x="164" y="274" type="curve" smooth="yes"/>
      <point x="83" y="274"/>
      <point x="30" y="326"/>
      <point x="30" y="391" type="curve"/>
      <point x="82" y="391" type="line"/>
      <point x="82" y="351"/>
      <point x="116" y="322"/>
      <point x="164" y="322" type="curve" smooth="yes"/>
      <point x="212" y="322"/>
      <point x="243" y="351"/>
      <point x="243" y="397" type="curve" smooth="yes"/>
      <point x="243" y="449"/>
      <point x="200" y="475"/>
      <point x="146" y="475" type="curve"/>
      <point x="146" y="508" type="line"/>
      <point x="227" y="508"/>
      <point x="295" y="474"/>
      <point x="295" y="391" type="curve" smooth="yes"/>
      <point x="295" y="320"/>
      <point x="239" y="274"/>
    </contour>
    <contour>
      <point x="465" y="84" type="line"/>
      <point x="507" y="129" type="line"/>
      <point x="689" y="129" type="line" smooth="yes"/>
      <point x="699" y="129" type="line" smooth="yes"/>
      <point x="785" y="129" type="line"/>
      <point x="785" y="84" type="line"/>
    </contour>
    <contour>
      <point x="519" y="84" type="line"/>
      <point x="465" y="84" type="line"/>
      <point x="698" y="420" type="line"/>
      <point x="719" y="420" type="line"/>
      <point x="719" y="0" type="line"/>
      <point x="668" y="0" type="line"/>
      <point x="668" y="106" type="line" smooth="yes"/>
      <point x="668" y="112" type="line" smooth="yes"/>
      <point x="668" y="307" type="line"/>
    </contour>
  </outline>
</glyph>
<glyph name="Ccedilla" format="1">
  <advance width="685"/>
  <unicode hex="00C7"/>
  <outline>
    <contour>
      <point x="130" y="350" type="curve" smooth="yes"/>
      <point x="130" y="187"/>
      <point x="252" y="75"/>
      <point x="390" y="75" type="curve" smooth="yes"/>
      <point x="489" y="75"/>
      <point x="566" y="117"/>
      <point x="615" y="179" type="curve"/>
      <point x="615" y="67" type="line"/>
      <point x="556" y="15"/>
      <point x="492" y="-10"/>
      <point x="390" y="-10" type="curve" smooth="yes"/>
      <point x="196" y="-10"/>
      <point x="40" y="141"/>
      <point x="40" y="350" type="curve" smooth="yes"/>
      <point x="40" y="559"/>
      <point x="196" y="710"/>
      <point x="390" y="710" type="curve" smooth="yes"/>
      <point x="492" y="710"/>
      <point x="556" y="685"/>
      <point x="615" y="633" type="curve"/>
      <point x="615" y="521" type="line"/>
      <point x="566" y="583"/>
      <point x="489" y="625"/>
      <point x="390" y="625" type="curve" smooth="yes"/>
      <point x="252" y="625"/>
      <point x="130" y="513"/>
    </contour>
    <contour>
      <point x="400" y="57" type="line"/>
      <point x="461" y="57" type="line"/>
      <point x="396" y="-57" type="line"/>
      <point x="315" y="-111" type="line"/>
    </contour>
    <contour>
      <point x="479" y="-129" type="curve"/>
      <point x="422" y="-129" type="line"/>
      <point x="422" y="-105"/>
      <point x="406" y="-93"/>
      <point x="372" y="-93" type="curve" smooth="yes"/>
      <point x="362" y="-93"/>
      <point x="338" y="-95"/>
      <point x="315" y="-111" type="curve"/>
      <point x="355" y="-71" type="line"/>
      <point x="381" y="-55"/>
      <point x="393" y="-55"/>
      <point x="406" y="-55" type="curve" smooth="yes"/>
      <point x="439" y="-55"/>
      <point x="479" y="-80"/>
    </contour>
    <contour>
      <point x="479" y="-129" type="line"/>
      <point x="479" y="-190"/>
      <point x="427" y="-223"/>
      <point x="372" y="-223" type="curve" smooth="yes"/>
      <point x="335" y="-223"/>
      <point x="311" y="-213"/>
      <point x="283" y="-185" type="curve"/>
      <point x="316" y="-145" type="line"/>
      <point x="335" y="-161"/>
      <point x="346" y="-169"/>
      <point x="372" y="-169" type="curve" smooth="yes"/>
      <point x="406" y="-169"/>
      <point x="422" y="-153"/>
      <point x="422" y="-129" type="curve"/>
    </contour>
  </outline>
</glyph>
<glyph name="Iacute" format="1">
  <advance width="245"/>
  <unicode hex="00CD"/>
  <outline>
    <contour>
      <point x="80" y="700" type="line"/>
      <point x="165" y="700" type="line"/>
      <point x="165" y="0" type="line"/>
      <point x="80" y="0" type="line"/>
    </contour>
    <contour>
      <point x="252" y="920" type="line"/>
      <point x="72" y="770" type="line"/>
      <point x="28" y="800" type="line"/>
      <point x="178" y="960" type="line"/>
    </contour>
  </outline>
</glyph>
<glyph name="Ntilde" format="1">
  <advance width="775"/>
  <unicode hex="00D1"/>
  <outline>
    <contour>
      <point x="85" y="605" type="line"/>
      <point x="80" y="735" type="line"/>
      <point x="690" y="95" type="line"/>
      <point x="695" y="-35" type="line"/>
    </contour>
    <contour>
      <point x="610" y="700" type="line"/>
      <point x="695" y="700" type="line"/>
      <point x="695" y="-35" type="line"/>
      <point x="610" y="75" type="line"/>
    </contour>
    <contour>
      <point x="80" y="735" type="line"/>
      <point x="165" y="625" type="line"/>
      <point x="165" y="0" type="line"/>
      <point x="80" y="0" type="line"/>
    </contour>
    <contour>
      <point x="225" y="792" type="line"/>
      <point x="235" y="841"/>
      <point x="284" y="874"/>
      <point x="329" y="874" type="curve" smooth="yes"/>
      <point x="394" y="874"/>
      <point x="399" y="827"/>
      <point x="453" y="827" type="curve" smooth="yes"/>
      <point x="472" y="827"/>
      <point x="489" y="843"/>
      <point x="509" y="875" type="curve"/>
      <point x="555" y="832" type="line"/>
      <point x="539" y="795"/>
      <point x="499" y="759"/>
      <point x="449" y="759" type="curve" smooth="yes"/>
      <point x="394" y="759"/>
      <point x="373" y="806"/>
      <point x="328" y="806" type="curve" smooth="yes"/>
      <point x="287" y="806"/>
      <point x="278" y="770"/>
      <point x="278" y="755" type="curve"/>
    </contour>
  </outline>
</glyph>
<glyph name="Odieresis" format="1">
  <advance width="790"/>
  <unicode hex="00D6"/>
  <outline>
    <contour>
      <point x="130" y="350" type="curve" smooth="yes"/>
      <point x="130" y="192"/>
      <point x="242" y="75"/>
      <point x="395" y="75" type="curve" smooth="yes"/>
      <point x="548" y="75"/>
      <point x="660" y="192"/>
      <point x="660" y="350" type="curve" smooth="yes"/>
      <point x="660" y="508"/>
      <point x="548" y="625"/>
      <point x="395" y="625" type="curve" smooth="yes"/>
      <point x="242" y="625"/>
      <point x="130" y="508"/>
    </contour>
    <contour>
      <point x="40" y="350" type="curve" smooth="yes"/>
      <point x="40" y="554"/>
      <point x="191" y="710"/>
      <point x="395" y="710" type="curve" smooth="yes"/>
      <point x="599" y="710"/>
      <point x="750" y="554"/>
      <point x="750" y="350" type="curve" smooth="yes"/>
      <point x="750" y="146"/>
      <point x="599" y="-10"/>
      <point x="395" y="-10" type="curve" smooth="yes"/>
      <point x="191" y="-10"/>
      <point x="40" y="146"/>
    </contour>
    <contour>
      <point x="440" y="825" type="curve" smooth="yes"/>
      <point x="440" y="855"/>
      <point x="465" y="880"/>
      <point x="495" y="880" type="curve" smooth="yes"/>
      <point x="525" y="880"/>
      <point x="550" y="855"/>
      <point x="550" y="825" type="curve" smooth="yes"/>
      <point x="550" y="795"/>
      <point x="525" y="770"/>
      <point x="495" y="770" type="curve" smooth="yes"/>
      <point x="465" y="770"/>
      <point x="440" y="795"/>
    </contour>
    <contour>
      <point x="240" y="825" type="curve" smooth="yes"/>
      <point x="240" y="855"/>
      <point x="265" y="880"/>
      <point x="295" y="880" type="curve" smooth="yes"/>
      <point x="325" y="880"/>
      <point x="350" y="855"/>
      <point x="350" y="825" type="curve" smooth="yes"/>
      <point x="350" y="795"/>
      <point x="325" y="770"/>
      <point x="295" y="770" type="curve" smooth="yes"/>
      <point x="265" y="770"/>
      <point x="240" y="795"/>
    </contour>
  </outline>
</glyph>
<glyph name="ocircumflex" format="1">
  <advance width="546"/>
  <unicode hex="00F4"/>
  <outline>
    <contour>
      <point x="35" y="230" type="curve" smooth="yes"/>
      <point x="35" y="369"/>
      <point x="138" y="470"/>
      <point x="273" y="470" type="curve" smooth="yes"/>
      <point x="408" y="470"/>
      <point x="511" y="369"/>
      <point x="511" y="230" type="curve" smooth="yes"/>
      <point x="511" y="91"/>
      <point x="408" y="-10"/>
      <point x="273" y="-10" type="curve" smooth="yes"/>
      <point x="138" y="-10"/>
      <point x="35" y="91"/>
    </contour>
    <contour>
      <point x="116" y="230" type="curve" smooth="yes"/>
      <point x="116" y="134"/>
      <point x="183" y="65"/>
      <point x="273" y="65" type="curve" smooth="yes"/>
      <point x="363" y="65"/>
      <point x="430" y="134"/>
      <point x="430" y="230" type="curve" smooth="yes"/>
      <point x="430" y="326"/>
      <point x="363" y="395"/>
      <point x="273" y="395" type="curve" smooth="yes"/>
      <point x="183" y="395"/>
      <point x="116" y="326"/>
    </contour>
    <contour>
      <point x="273" y="645" type="line"/>
      <point x="163" y="550" type="line"/>
      <point x="113" y="590" type="line"/>
      <point x="273" y="730" type="line"/>
      <point x="433" y="590" type="line"/>
      <point x="383" y="550" type="line"/>
    </contour>
  </outline>
</glyph>
<glyph name="Aogonek" format="1">
  <advance width="660"/>
  <unicode hex="0104"/>
  <outline>
    <contour>
      <point x="147" y="210" type="line"/>
      <point x="177" y="290" type="line"/>
      <point x="487" y="290" type="line"/>
      <point x="517" y="210" type="line"/>
    </contour>
    <contour>
      <point x="330" y="542" type="line"/>
      <point x="212" y="264" type="line"/>
      <point x="204" y="246" type="line"/>
      <point x="100" y="0" type="line"/>
      <point x="5" y="0" type="line"/>
      <point x="330" y="735" type="line"/>
      <point x="655" y="0" type="line"/>
      <point x="560" y="0" type="line"/>
      <point x="458" y="240" type="line"/>
      <point x="450" y="260" type="line"/>
    </contour>
    <contour>
      <point x="650" y="-130" type="curve"/>
      <point x="683" y="-180" type="line"/>
      <point x="668" y="-200"/>
      <point x="638" y="-220"/>
      <point x="595" y="-220" type="curve" smooth="yes"/>
      <point x="511" y="-220"/>
      <point x="472" y="-179"/>
      <point x="472" y="-120" type="curve"/>
      <point x="552" y="-100" type="line"/>
      <point x="552" y="-136"/>
      <point x="570" y="-150"/>
      <point x="600" y="-150" type="curve" smooth="yes"/>
      <point x="626" y="-150"/>
      <point x="636" y="-143"/>
    </contour>
    <contour>
      <point x="552" y="-100" type="curve"/>
      <point x="472" y="-120" type="line"/>
      <point x="472" y="-61"/>
      <point x="534" y="-11"/>
      <point x="604" y="25" type="curve"/>
      <point x="645" y="0" type="line"/>
      <point x="593" y="-22"/>
      <point x="552" y="-63"/>
    </contour>
  </outline>
</glyph>
<glyph name="Eogonek" format="1">
  <advance width="550"/>
  <unicode hex="0118"/>
  <outline>
    <contour>
      <point x="127" y="0" type="line"/>
      <point x="127" y="80" type="line"/>
      <point x="480" y="80" type="line"/>
      <point x="480" y="0" type="line"/>
    </contour>
    <contour>
      <point x="127" y="620" type="line"/>
      <point x="127" y="700" type="line"/>
      <point x="480" y="700" type="line"/>
      <point x="480" y="620" type="line"/>
    </contour>
    <contour>
      <point x="127" y="340" type="line"/>
      <point x="127" y="420" type="line"/>
      <point x="460" y="420" type="line"/>
      <point x="460" y="340" type="line"/>
    </contour>
    <contour>
      <point x="80" y="700" type="line"/>
      <point x="165" y="700" type="line"/>
      <point x="165" y="0" type="line"/>
      <point x="80" y="0" type="line"/>
    </contour>
    <contour>
      <point x="478" y="-131" type="curve"/>
      <point x="511" y="-181" type="line"/>
      <point x="496" y="-201"/>
      <point x="466" y="-221"/>
      <point x="423" y="-221" type="curve" smooth="yes"/>
      <point x="339" y="-221"/>
      <point x="300" y="-180"/>
      <point x="300" y="-121" type="curve"/>
      <point x="380" y="-101" type="line"/>
      <point x="380" y="-137"/>
      <point x="398" y="-151"/>
      <point x="428" y="-151" type="curve" smooth="yes"/>
      <point x="454" y="-151"/>
      <point x="464" y="-144"/>
    </contour>
    <contour>
      <point x="380" y="-101" type="curve"/>
      <point x="300" y="-121" type="line"/>
      <point x="300" y="-62"/>
      <point x="362" y="-12"/>
      <point x="432" y="24" type="curve"/>
      <point x="473" y="-1" type="line"/>
      <point x="421" y="-23"/>
      <point x="380" y="-64"/>
    </contour>
  </outline>
</glyph>
<glyph name="gcircumflex" format="1">
  <advance width="570"/>
  <unicode hex="011D"/>
  <outline>
    <contour>
      <point x="456" y="230" type="curve"/>
      <point x="420" y="230" type="line"/>
      <point x="420" y="336"/>
      <point x="343" y="395"/>
      <point x="273" y="395" type="curve" smooth="yes"/>
      <point x="188" y="395"/>
      <point x="116" y="336"/>
      <point x="116" y="230" type="curve"/>
      <point x="35" y="230" type="line"/>
      <point x="35" y="379"/>
      <point x="138" y="470"/>
      <point x="263" y="470" type="curve" smooth="yes"/>
      <point x="378" y="470"/>
      <point x="456" y="379"/>
    </contour>
    <contour>
      <point x="420" y="230" type="curve"/>
      <point x="456" y="230" type="line"/>
      <point x="456" y="81"/>
      <point x="378" y="-10"/>
      <point x="263" y="-10" type="curve" smooth="yes"/>
      <point x="138" y="-10"/>
      <point x="35" y="81"/>
      <point x="35" y="230" type="curve"/>
      <point x="116" y="230" type="line"/>
      <point x="116" y="124"/>
      <point x="188" y="65"/>
      <point x="273" y="65" type="curve" smooth="yes"/>
      <point x="343" y="65"/>
      <point x="420" y="124"/>
    </contour>
    <contour>
      <point x="44" y="-30" type="curve"/>
      <point x="125" y="-30" type="line"/>
      <point x="125" y="-96"/>
      <point x="182" y="-155"/>
      <point x="272" y="-155" type="curve" smooth="yes"/>
      <point x="342" y="-155"/>
      <point x="420" y="-106"/>
      <point x="420" y="10" type="curve" smooth="yes"/>
      <point x="420" y="460" type="line"/>
      <point x="500" y="460" type="line"/>
      <point x="500" y="10" type="line" smooth="yes"/>
      <point x="500" y="-149"/>
      <point x="387" y="-230"/>
      <point x="272" y="-230" type="curve" smooth="yes"/>
      <point x="137" y="-230"/>
      <point x="44" y="-149"/>
    </contour>
    <contour>
      <point x="263" y="625" type="line"/>
      <point x="153" y="530" type="line"/>
      <point x="103" y="570" type="line"/>
      <point x="263" y="710" type="line"/>
      <point x="423" y="570" type="line"/>
      <point x="373" y="530" type="line"/>
    </contour>
  </outline>
</glyph>
<glyph name="ibreve" format="1">
  <advance width="260"/>
  <unicode hex="012D"/>
  <outline>
    <contour>
      <point x="90" y="460" type="line"/>
      <point x="170" y="460" type="line"/>
      <point x="170" y="0" type="line"/>
      <point x="90" y="0" type="line"/>
    </contour>
    <contour>
      <point x="-28" y="670" type="curve"/>
      <point x="43" y="670" type="line"/>
      <point x="43" y="644"/>
      <point x="60" y="595"/>
      <point x="130" y="595" type="curve" smooth="yes"/>
      <point x="200" y="595"/>
      <point x="217" y="644"/>
      <point x="217" y="670" type="curve"/>
      <point x="288" y="670" type="line"/>
      <point x="288" y="601"/>
      <point x="235" y="530"/>
      <point x="130" y="530" type="curve" smooth="yes"/>
      <point x="25" y="530"/>
      <point x="-28" y="601"/>
    </contour>
  </outline>
</glyph>
<glyph name="Iogonek" format="1">
  <advance width="245"/>
  <unicode hex="012E"/>
  <outline>
    <contour>
      <point x="80" y="700" type="line"/>
      <point x="165" y="700" type="line"/>
      <point x="165" y="0" type="line"/>
      <point x="80" y="0" type="line"/>
    </contour>
    <contour>
      <point x="169" y="-147" type="curve"/>
      <point x="202" y="-197" type="line"/>
      <point x="187" y="-217"/>
      <point x="157" y="-237"/>
      <point x="114" y="-237" type="curve" smooth="yes"/>
      <point x="30" y="-237"/>
      <point x="-9" y="-196"/>
      <point x="-9" y="-137" type="curve"/>
      <point x="71" y="-117" type="line"/>
      <point x="71" y="-153"/>
      <point x="89" y="-167"/>
      <point x="119" y="-167" type="curve" smooth="yes"/>
      <point x="145" y="-167"/>
      <point x="155" y="-160"/>
    </contour>
    <contour>
      <point x="71" y="-117" type="curve"/>
      <point x="-9" y="-137" type="line"/>
      <point x="-9" y="-78"/>
      <point x="53" y="-28"/>
      <point x="123" y="8" type="curve"/>
      <point x="164" y="-17" type="line"/>
      <point x="112" y="-39"/>
      <point x="71" y="-80"/>
    </contour>
  </outline>
</glyph>
<glyph name="uni0136" format="1">
  <advance width="565"/>
  <unicode hex="0136"/>
  <outline>
    <contour>
      <point x="80" y="700" type="line"/>
      <point x="165" y="700" type="line"/>
      <point x="165" y="0" type="line"/>
      <point x="80" y="0" type="line"/>
    </contour>
    <contour>
      <point x="440" y="700" type="line"/>
      <point x="545" y="700" type="line"/>
      <point x="242" y="372" type="line"/>
      <point x="560" y="0" type="line"/>
      <point x="455" y="0" type="line"/>
      <point x="139" y="370" type="line"/>
    </contour>
    <contour>
      <point x="324" y="-60" type="line"/>
      <point x="404" y="-90" type="line"/>
      <point x="294" y="-340" type="line"/>
      <point x="236" y="-319" type="line"/>
    </contour>
  </outline>
</glyph>
<glyph name="Lcaron" format="1">
  <advance width="450"/>
  <unicode hex="013D"/>
  <outline>
    <contour>
      <point x="127" y="0" type="line"/>
      <point x="127" y="80" type="line"/>
      <point x="440" y="80" type="line"/>
      <point x="440" y="0" type="line"/>
    </contour>
    <contour>
      <point x="80" y="700" type="line"/>
      <point x="165" y="700" type="line"/>
      <point x="165" y="0" type="line"/>
      <point x="80" y="0" type="line"/>
    </contour>
    <contour>
      <point x="318" y="710" type="line"/>
      <point x="398" y="680" type="line"/>
      <point x="288" y="430" type="line"/>
      <point x="230" y="451" type="line"/>
    </contour>
  </outline>
</glyph>
<glyph name="Obreve" format="1">
  <advance width="790"/>
  <unicode hex="014E"/>
  <outline>
    <contour>
      <point x="130" y="350" type="curve" smooth="yes"/>
      <point x="130" y="192"/>
      <point x="242" y="75"/>
      <point x="395" y="75" type="curve" smooth="yes"/>
      <point x="548" y="75"/>
      <point x="660" y="192"/>
      <point x="660" y="350" type="curve" smooth="yes"/>
      <point x="660" y="508"/>
      <point x="548" y="625"/>
      <point x="395" y="625" type="curve" smooth="yes"/>
      <point x="242" y="625"/>
      <point x="130" y="508"/>
    </contour>
    <contour>
      <point x="40" y="350" type="curve" smooth="yes"/>
      <point x="40" y="554"/>
      <point x="191" y="710"/>
      <point x="395" y="710" type="curve" smooth="yes"/>
      <point x="599" y="710"/>
      <point x="750" y="554"/>
      <point x="750" y="350" type="curve" smooth="yes"/>
      <point x="750" y="146"/>
      <point x="599" y="-10"/>
      <point x="395" y="-10" type="curve" smooth="yes"/>
      <point x="191" y="-10"/>
      <point x="40" y="146"/>
    </contour>
    <contour>
      <point x="237" y="910" type="curve"/>
      <point x="308" y="910" type="line"/>
      <point x="308" y="884"/>
      <point x="325" y="835"/>
      <point x="395" y="835" type="curve" smooth="yes"/>
      <point x="465" y="835"/>
      <point x="482" y="884"/>
      <point x="482" y="910" type="curve"/>
      <point x="553" y="910" type="line"/>
      <point x="553" y="841"/>
      <point x="500" y="770"/>
      <point x="395" y="770" type="curve" smooth="yes"/>
      <point x="290" y="770"/>
      <point x="237" y="841"/>
    </contour>
  </outline>
</glyph>
<glyph name="Rcaron" format="1">
  <advance width="560"/>
  <unicode hex="0158"/>
  <outline>
    <contour>
      <point x="205" y="345" type="line"/>
      <point x="300" y="345" type="line"/>
      <point x="550" y="0" type="line"/>
      <point x="445" y="0" type="line"/>
    </contour>
    <contour>
      <point x="80" y="700" type="line"/>
      <point x="165" y="700" type="line"/>
      <point x="165" y="0" type="line"/>
      <point x="80" y="0" type="line"/>
    </contour>
    <contour>
      <point x="127" y="625" type="line"/>
      <point x="127" y="700" type="line"/>
      <point x="270" y="700" type="line" smooth="yes"/>
      <point x="405" y="700"/>
      <point x="508" y="619"/>
      <point x="508" y="490" type="curve" smooth="yes"/>
      <point x="508" y="361"/>
      <point x="405" y="280"/>
      <point x="270" y="280" type="curve" smooth="yes"/>
      <point x="127" y="280" type="line"/>
      <point x="127" y="355" type="line"/>
      <point x="270" y="355" type="line" smooth="yes"/>
      <point x="360" y="355"/>
      <point x="423" y="404"/>
      <point x="423" y="490" type="curve" smooth="yes"/>
      <point x="423" y="576"/>
      <point x="360" y="625"/>
      <point x="270" y="625" type="curve" smooth="yes"/>
    </contour>
    <contour>
      <point x="255" y="855" type="line"/>
      <point x="365" y="950" type="line"/>
      <point x="415" y="910" type="line"/>
      <point x="255" y="770" type="line"/>
      <point x="95" y="910" type="line"/>
      <point x="145" y="950" type="line"/>
    </contour>
  </outline>
</glyph>
<glyph name="rcaron" format="1">
  <advance width="343"/>
  <unicode hex="0159"/>
  <outline>
    <contour>
      <point x="155" y="460" type="line"/>
      <point x="155" y="0" type="line"/>
      <point x="75" y="0" type="line"/>
      <point x="75" y="460" type="line"/>
    </contour>
    <contour>
      <point x="294" y="372" type="line"/>
      <point x="272" y="388"/>
      <point x="258" y="395"/>
      <point x="232" y="395" type="curve" smooth="yes"/>
      <point x="172" y="395"/>
      <point x="155" y="346"/>
      <point x="155" y="280" type="curve"/>
      <point x="119" y="280" type="line"/>
      <point x="119" y="389"/>
      <point x="187" y="470"/>
      <point x="252" y="470" type="curve" smooth="yes"/>
      <point x="285" y="470"/>
      <point x="314" y="463"/>
      <point x="338" y="438" type="curve"/>
    </contour>
    <contour>
      <point x="206" y="615" type="line"/>
      <point x="316" y="710" type="line"/>
      <point x="366" y="670" type="line"/>
      <point x="206" y="530" type="line"/>
      <point x="46" y="670" type="line"/>
      <point x="96" y="710" type="line"/>
    </contour>
  </outline>
</glyph>
<glyph name="uni0212" format="1">
  <advance width="560"/>
  <unicode hex="0212"/>
  <outline>
    <contour>
      <point x="205" y="345" type="line"/>
      <point x="300" y="345" type="line"/>
      <point x="550" y="0" type="line"/>
      <point x="445" y="0" type="line"/>
    </contour>
    <contour>
      <point x="80" y="700" type="line"/>
      <point x="165" y="700" type="line"/>
      <point x="165" y="0" type="line"/>
      <point x="80" y="0" type="line"/>
    </contour>
    <contour>
      <point x="127" y="625" type="line"/>
      <point x="127" y="700" type="line"/>
      <point x="270" y="700" type="line" smooth="yes"/>
      <point x="405" y="700"/>
      <point x="508" y="619"/>
      <point x="508" y="490" type="curve" smooth="yes"/>
      <point x="508" y="361"/>
      <point x="405" y="280"/>
      <point x="270" y="280" type="curve" smooth="yes"/>
      <point x="127" y="280" type="line"/>
      <point x="127" y="355" type="line"/>
      <point x="270" y="355" type="line" smooth="yes"/>
      <point x="360" y="355"/>
      <point x="423" y="404"/>
      <point x="423" y="490" type="curve" smooth="yes"/>
      <point x="423" y="576"/>
      <point x="360" y="625"/>
      <point x="270" y="625" type="curve" smooth="yes"/>
    </contour>
    <contour>
      <point x="117" y="770" type="curve"/>
      <point x="188" y="770" type="line"/>
      <point x="188" y="796"/>
      <point x="205" y="845"/>
      <point x="275" y="845" type="curve" smooth="yes"/>
      <point x="345" y="845"/>
      <point x="362" y="796"/>
      <point x="362" y="770" type="curve"/>
      <point x="433" y="770" type="line"/>
      <point x="433" y="839"/>
      <point x="380" y="910"/>
      <point x="275" y="910" type="curve" smooth="yes"/>
      <point x="170" y="910"/>
      <point x="117" y="839"/>
    </contour>
  </outline>
</glyph>
<glyph name="ring" format="1">
  <advance width="278"/>
  <unicode hex="02DA"/>
  <outline>
    <contour>
      <point x="37" y="785" type="curve" smooth="yes"/>
      <point x="37" y="845"/>
      <point x="87" y="885"/>
      <point x="139" y="885" type="curve" smooth="yes"/>
      <point x="191" y="885"/>
      <point x="241" y="845"/>
      <point x="241" y="785" type="curve" smooth="yes"/>
      <point x="241" y="725"/>
      <point x="191" y="685"/>
      <point x="139" y="685" type="curve" smooth="yes"/>
      <point x="87" y="685"/>
      <point x="37" y="725"/>
    </contour>
    <contour>
      <point x="88" y="785" type="curve" smooth="yes"/>
      <point x="88" y="752"/>
      <point x="114" y="732"/>
      <point x="139" y="732" type="curve" smooth="yes"/>
      <point x="164" y="732"/>
      <point x="190" y="752"/>
      <point x="190" y="785" type="curve" smooth="yes"/>
      <point x="190" y="818"/>
      <point x="164" y="838"/>
      <point x="139" y="838" type="curve" smooth="yes"/>
      <point x="114" y="838"/>
      <point x="88" y="818"/>
    </contour>
  </outline>
</glyph>
<glyph name="tilde" format="1">
  <advance width="530"/>
  <unicode hex="02DC"/>
  <outline>
    <contour>
      <point x="100" y="625" type="line"/>
      <point x="110" y="674"/>
      <point x="159" y="707"/>
      <point x="204" y="707" type="curve" smooth="yes"/>
      <point x="269" y="707"/>
      <point x="274" y="660"/>
      <point x="328" y="660" type="curve" smooth="yes"/>
      <point x="347" y="660"/>
      <point x="364" y="676"/>
      <point x="384" y="708" type="curve"/>
      <point x="430" y="665" type="line"/>
      <point x="414" y="628"/>
      <point x="374" y="592"/>
      <point x="324" y="592" type="curve" smooth="yes"/>
      <point x="269" y="592"/>
      <point x="248" y="639"/>
      <point x="203" y="639" type="curve" smooth="yes"/>
      <point x="162" y="639"/>
      <point x="153" y="603"/>
      <point x="153" y="588" type="curve"/>
    </contour>
  </outline>
</glyph>
<glyph name="emdash" format="1">
  <advance width="890"/>
  <unicode hex="2014"/>
  <outline>
    <contour>
      <point x="70" y="200" type="line"/>
      <point x="70" y="275" type="line"/>
      <point x="820" y="275" type="line"/>
      <point x="820" y="200" type="line"/>
    </contour>
  </outline>
</glyph>
<glyph name="uni2074" format="1">
  <advance width="386"/>
  <unicode hex="2074"/>
  <outline>
    <contour>
      <point x="30" y="364" type="line"/>
      <point x="72" y="409" type="line"/>
      <point x="254" y="409" type="line" smooth="yes"/>
      <point x="264" y="409" type="line" smooth="yes"/>
      <point x="350" y="409" type="line"/>
      <point x="350" y="364" type="line"/>
    </contour>
    <contour>
      <point x="84" y="364" type="line"/>
      <point x="30" y="364" type="line"/>
      <point x="263" y="700" type="line"/>
      <point x="284" y="700" type="line"/>
      <point x="284" y="280" type="line"/>
      <point x="233" y="280" type="line"/>
      <point x="233" y="386" type="line" smooth="yes"/>
      <point x="233" y="392" type="line" smooth="yes"/>
      <point x="233" y="587" type="line"/>
    </contour>
  </outline>
</glyph>
<glyph name="uni2075" format="1">
  <advance width="356"/>
  <unicode hex="2075"/>
  <outline>
    <contour>
      <point x="326" y="416" type="curve" smooth="yes"/>
      <point x="326" y="321"/>
      <point x="260" y="272"/>
      <point x="179" y="272" type="curve" smooth="yes"/>
      <point x="102" y="272"/>
      <point x="58" y="312"/>
      <point x="30" y="360" type="curve"/>
      <point x="73" y="390" type="line"/>
      <point x="92" y="354"/>
      <point x="133" y="320"/>
      <point x="179" y="320" type="curve" smooth="yes"/>
      <point x="239" y="320"/>
      <point x="273" y="358"/>
      <point x="273" y="416" type="curve" smooth="yes"/>
      <point x="273" y="474"/>
      <point x="233" y="512"/>
      <point x="179" y="512" type="curve" smooth="yes"/>
      <point x="139" y="512"/>
      <point x="115" y="504"/>
      <point x="72" y="474" type="curve"/>
      <point x="102" y="514" type="line"/>
      <point x="130" y="544"/>
      <point x="166" y="558"/>
      <point x="201" y="558" type="curve" smooth="yes"/>
      <point x="273" y="558"/>
      <point x="326" y="499"/>
    </contour>
    <contour>
      <point x="166" y="653" type="line"/>
      <point x="135" y="528" type="line"/>
      <point x="72" y="474" type="line"/>
      <point x="127" y="698" type="line"/>
      <point x="325" y="698" type="line"/>
      <point x="325" y="653" type="line"/>
    </contour>
  </outline>
</glyph>
<glyph name="uni2081" format="1">
  <advance width="314"/>
  <unicode hex="2081"/>
  <outline>
    <contour>
      <point x="90" y="338" type="line"/>
      <point x="90" y="391" type="line"/>
      <point x="234" y="427" type="line"/>
      <point x="234" y="1" type="line"/>
      <point x="183" y="1" type="line"/>
      <point x="183" y="366" type="line"/>
    </contour>
  </outline>
</glyph>
<glyph name="uni2087" format="1">
  <advance width="354"/>
  <unicode hex="2087"/>
  <outline>
    <contour>
      <point x="30" y="372" type="line"/>
      <point x="30" y="420" type="line"/>
      <point x="324" y="420" type="line"/>
      <point x="123" y="0" type="line"/>
      <point x="70" y="0" type="line"/>
      <point x="248" y="372" type="line"/>
    </contour>
  </outline>
</glyph>
<glyph name="uni2150" format="1">
  <advance width="842"/>
  <unicode hex="2150"/>
  <outline>
    <contour>
      <point x="568" y="700" type="line"/>
      <point x="633" y="700" type="line"/>
      <point x="113" y="0" type="line"/>
      <point x="48" y="0" type="line"/>
    </contour>
    <contour>
      <point x="30" y="611" type="line"/>
      <point x="30" y="664" type="line"/>
      <point x="174" y="700" type="line"/>
      <point x="174" y="274" type="line"/>
      <point x="123" y="274" type="line"/>
      <point x="123" y="639" type="line"/>
    </contour>
    <contour>
      <point x="518" y="372" type="line"/>
      <point x="518" y="420" type="line"/>
      <point x="812" y="420" type="line"/>
      <point x="611" y="0" type="line"/>
      <point x="558" y="0" type="line"/>
      <point x="736" y="372" type="line"/>
    </contour>
  </outline>
</glyph>
<glyph name="onethird" format="1">
  <advance width="755"/>
  <unicode hex="2153"/>
  <outline>
    <contour>
      <point x="568" y="700" type="line"/>
      <point x="633" y="700" type="line"/>
      <point x="113" y="0" type="line"/>
      <point x="48" y="0" type="line"/>
    </contour>
    <contour>
      <point x="30" y="611" type="line"/>
      <point x="30" y="664" type="line"/>
      <point x="174" y="700" type="line"/>
      <point x="174" y="274" type="line"/>
      <point x="123" y="274" type="line"/>
      <point x="123" y="639" type="line"/>
    </contour>
    <contour>
      <point x="579" y="207" type="curve"/>
      <point x="579" y="240" type="line"/>
      <point x="633" y="240"/>
      <point x="664" y="273"/>
      <point x="664" y="313" type="curve" smooth="yes"/>
      <point x="664" y="353"/>
      <point x="642" y="380"/>
      <point x="600" y="380" type="curve" smooth="yes"/>
      <point x="561" y="380"/>
      <point x="530" y="353"/>
      <point x="530" y="316" type="curve"/>
      <point x="481" y="316" type="line"/>
      <point x="481" y="381"/>
      <point x="531" y="426"/>
      <point x="600" y="426" type="curve" smooth="yes"/>
      <point x="672" y="426"/>
      <point x="716" y="373"/>
      <point x="716" y="314" type="curve" smooth="yes"/>
      <point x="716" y="255"/>
      <point x="660" y="207"/>
    </contour>
    <contour>
      <point x="597" y="-6" type="curve" smooth="yes"/>
      <point x="516" y="-6"/>
      <point x="463" y="46"/>
      <point x="463" y="111" type="curve"/>
      <point x="515" y="111" type="line"/>
      <point x="515" y="71"/>
      <point x="549" y="42"/>
      <point x="597" y="42" type="curve" smooth="yes"/>
      <point x="645" y="42"/>
      <point x="676" y="71"/>
      <point x="676" y="117" type="curve" smooth="yes"/>
      <point x="676" y="169"/>
      <point x="633" y="195"/>
      <point x="579" y="195" type="curve"/>
      <point x="579" y="228" type="line"/>
      <point x="660" y="228"/>
      <point x="728" y="194"/>
      <point x="728" y="111" type="curve" smooth="yes"/>
      <point x="728" y="40"/>
      <point x="672" y="-6"/>
    </contour>
  </outline>
</glyph>
<glyph name="twothirds" format="1">
  <advance width="882"/>
  <unicode hex="2154"/>
  <outline>
    <contour>
      <point x="695" y="700" type="line"/>
      <point x="760" y="700" type="line"/>
      <point x="240" y="0" type="line"/>
      <point x="175" y="0" type="line"/>
    </contour>
    <contour>
      <point x="30" y="282" type="line"/>
      <point x="228" y="494" type="line" smooth="yes"/>
      <point x="256" y="523"/>
      <point x="272" y="552"/>
      <point x="272" y="586" type="curve" smooth="yes"/>
      <point x="272" y="623"/>
      <point x="247" y="661"/>
      <point x="196" y="661" type="curve" smooth="yes"/>
      <point x="142" y="661"/>
      <point x="105" y="622"/>
      <point x="105" y="558" type="curve"/>
      <point x="54" y="558" type="line"/>
      <point x="54" y="647"/>
      <point x="109" y="709"/>
      <point x="196" y="709" type="curve" smooth="yes"/>
      <point x="288" y="709"/>
      <point x="324" y="638"/>
      <point x="324" y="582" type="curve" smooth="yes"/>
      <point x="324" y="539"/>
      <point x="301" y="500"/>
      <point x="268" y="466" type="curve" smooth="yes"/>
      <point x="135" y="330" type="line"/>
      <point x="326" y="330" type="line"/>
      <point x="326" y="282" type="line"/>
    </contour>
    <contour>
      <point x="706" y="207" type="curve"/>
      <point x="706" y="240" type="line"/>
      <point x="760" y="240"/>
      <point x="791" y="273"/>
      <point x="791" y="313" type="curve" smooth="yes"/>
      <point x="791" y="353"/>
      <point x="769" y="380"/>
      <point x="727" y="380" type="curve" smooth="yes"/>
      <point x="688" y="380"/>
      <point x="657" y="353"/>
      <point x="657" y="316" type="curve"/>
      <point x="608" y="316" type="line"/>
      <point x="608" y="381"/>
      <point x="658" y="426"/>
      <point x="727" y="426" type="curve" smooth="yes"/>
      <point x="799" y="426"/>
      <point x="843" y="373"/>
      <point x="843" y="314" type="curve" smooth="yes"/>
      <point x="843" y="255"/>
      <point x="787" y="207"/>
    </contour>
    <contour>
      <point x="724" y="-6" type="curve" smooth="yes"/>
      <point x="643" y="-6"/>
      <point x="590" y="46"/>
      <point x="590" y="111" type="curve"/>
      <point x="642" y="111" type="line"/>
      <point x="642" y="71"/>
      <point x="676" y="42"/>
      <point x="724" y="42" type="curve" smooth="yes"/>
      <point x="772" y="42"/>
      <point x="803" y="71"/>
      <point x="803" y="117" type="curve" smooth="yes"/>
      <point x="803" y="169"/>
      <point x="760" y="195"/>
      <point x="706" y="195" type="curve"/>
      <point x="706" y="228" type="line"/>
      <point x="787" y="228"/>
      <point x="855" y="194"/>
      <point x="855" y="111" type="curve" smooth="yes"/>
      <point x="855" y="40"/>
      <point x="799" y="-6"/>
    </contour>
  </outline>
</glyph>
<glyph name="uni2158" format="1">
  <advance width="866"/>
  <unicode hex="2158"/>
  <outline>
    <contour>
      <point x="690" y="700" type="line"/>
      <point x="755" y="700" type="line"/>
      <point x="235" y="0" type="line"/>
      <point x="170" y="0" type="line"/>
    </contour>
    <contour>
      <point x="30" y="364" type="line"/>
      <point x="72" y="409" type="line"/>
      <point x="254" y="409" type="line" smooth="yes"/>
      <point x="264" y="409" type="line" smooth="yes"/>
      <point x="350" y="409" type="line"/>
      <point x="350" y="364" type="line"/>
    </contour>
    <contour>
      <point x="84" y="364" type="line"/>
      <point x="30" y="364" type="line"/>
      <point x="263" y="700" type="line"/>
      <point x="284" y="700" type="line"/>
      <point x="284" y="280" type="line"/>
      <point x="233" y="280" type="line"/>
      <point x="233" y="386" type="line" smooth="yes"/>
      <point x="233" y="392" type="line" smooth="yes"/>
      <point x="233" y="587" type="line"/>
    </contour>
    <contour>
      <point x="836" y="136" type="curve" smooth="yes"/>
      <point x="836" y="41"/>
      <point x="770" y="-8"/>
      <point x="689" y="-8" type="curve" smooth="yes"/>
      <point x="612" y="-8"/>
      <point x="568" y="32"/>
      <point x="540" y="80" type="curve"/>
      <point x="583" y="110" type="line"/>
      <point x="602" y="74"/>
      <point x="643" y="40"/>
      <point x="689" y="40" type="curve" smooth="yes"/>
      <point x="749" y="40"/>
      <point x="783" y="78"/>
      <point x="783" y="136" type="curve" smooth="yes"/>
      <point x="783" y="194"/>
      <point x="743" y="232"/>
      <point x="689" y="232" type="curve" smooth="yes"/>
      <point x="649" y="232"/>
      <point x="625" y="224"/>
      <point x="582" y="194" type="curve"/>
      <point x="612" y="234" type="line"/>
      <point x="640" y="264"/>
      <point x="676" y="278"/>
      <point x="711" y="278" type="curve" smooth="yes"/>
      <point x="783" y="278"/>
      <point x="836" y="219"/>
    </contour>
    <contour>
      <point x="676" y="373" type="line"/>
      <point x="645" y="248" type="line"/>
      <point x="582" y="194" type="line"/>
      <point x="637" y="418" type="line"/>
      <point x="835" y="418" type="line"/>
      <point x="835" y="373" type="line"/>
    </contour>
  </outline>
</glyph>
<glyph name="uni215A" format="1">
  <advance width="856"/>
  <unicode hex="215A"/>
  <outline>
    <contour>
      <point x="690" y="700" type="line"/>
      <point x="755" y="700" type="line"/>
      <point x="235" y="0" type="line"/>
      <point x="170" y="0" type="line"/>
    </contour>
    <contour>
      <point x="326" y="416" type="curve" smooth="yes"/>
      <point x="326" y="321"/>
      <point x="260" y="272"/>
      <point x="179" y="272" type="curve" smooth="yes"/>
      <point x="102" y="272"/>
      <point x="58" y="312"/>
      <point x="30" y="360" type="curve"/>
      <point x="73" y="390" type="line"/>
      <point x="92" y="354"/>
      <point x="133" y="320"/>
      <point x="179" y="320" type="curve" smooth="yes"/>
      <point x="239" y="320"/>
      <point x="273" y="358"/>
      <point x="273" y="416" type="curve" smooth="yes"/>
      <point x="273" y="474"/>
      <point x="233" y="512"/>
      <point x="179" y="512" type="curve" smooth="yes"/>
      <point x="139" y="512"/>
      <point x="115" y="504"/>
      <point x="72" y="474" type="curve"/>
      <point x="102" y="514" type="line"/>
      <point x="130" y="544"/>
      <point x="166" y="558"/>
      <point x="201" y="558" type="curve" smooth="yes"/>
      <point x="273" y="558"/>
      <point x="326" y="499"/>
    </contour>
    <contour>
      <point x="166" y="653" type="line"/>
      <point x="135" y="528" type="line"/>
      <point x="72" y="474" type="line"/>
      <point x="127" y="698" type="line"/>
      <point x="325" y="698" type="line"/>
      <point x="325" y="653" type="line"/>
    </contour>
    <contour>
      <point x="595" y="136" type="curve" smooth="yes"/>
      <point x="595" y="78"/>
      <point x="635" y="38"/>
      <point x="689" y="38" type="curve" smooth="yes"/>
      <point x="743" y="38"/>
      <point x="783" y="78"/>
      <point x="783" y="136" type="curve" smooth="yes"/>
      <point x="783" y="194"/>
      <point x="743" y="235"/>
      <point x="689" y="235" type="curve" smooth="yes"/>
      <point x="635" y="235"/>
      <point x="595" y="194"/>
    </contour>
    <contour>
      <point x="714" y="418" type="line"/>
      <point x="779" y="418" type="line"/>
      <point x="647" y="245" type="line"/>
      <point x="644" y="248" type="line"/>
      <point x="660" y="268"/>
      <point x="681" y="272"/>
      <point x="708" y="272" type="curve" smooth="yes"/>
      <point x="776" y="272"/>
      <point x="832" y="213"/>
      <point x="832" y="136" type="curve" smooth="yes"/>
      <point x="832" y="50"/>
      <point x="770" y="-8"/>
      <point x="689" y="-8" type="curve" smooth="yes"/>
      <point x="608" y="-8"/>
      <point x="546" y="50"/>
      <point x="546" y="136" type="curve" smooth="yes"/>
      <point x="546" y="170"/>
      <point x="557" y="201"/>
      <point x="573" y="223" type="curve" smooth="yes"/>
    </contour>
  </outline>
</glyph>
<glyph name="oneeighth" format="1">
  <advance width="760"/>
  <unicode hex="215B"/>
  <outline>
    <contour>
      <point x="568" y="700" type="line"/>
      <point x="633" y="700" type="line"/>
      <point x="113" y="0" type="line"/>
      <point x="48" y="0" type="line"/>
    </contour>
    <contour>
      <point x="30" y="611" type="line"/>
      <point x="30" y="664" type="line"/>
      <point x="174" y="700" type="line"/>
      <point x="174" y="274" type="line"/>
      <point x="123" y="274" type="line"/>
      <point x="123" y="639" type="line"/>
    </contour>
    <contour>
      <point x="483" y="319" type="curve" smooth="yes"/>
      <point x="483" y="378"/>
      <point x="533" y="426"/>
      <point x="599" y="426" type="curve" smooth="yes"/>
      <point x="665" y="426"/>
      <point x="715" y="378"/>
      <point x="715" y="319" type="curve" smooth="yes"/>
      <point x="715" y="254"/>
      <point x="668" y="213"/>
      <point x="599" y="213" type="curve" smooth="yes"/>
      <point x="530" y="213"/>
      <point x="483" y="254"/>
    </contour>
    <contour>
      <point x="532" y="313" type="curve" smooth="yes"/>
      <point x="532" y="273"/>
      <point x="563" y="246"/>
      <point x="599" y="246" type="curve" smooth="yes"/>
      <point x="635" y="246"/>
      <point x="666" y="273"/>
      <point x="666" y="313" type="curve" smooth="yes"/>
      <point x="666" y="353"/>
      <point x="638" y="381"/>
      <point x="599" y="381" type="curve" smooth="yes"/>
      <point x="560" y="381"/>
      <point x="532" y="353"/>
    </contour>
    <contour>
      <point x="468" y="114" type="curve" smooth="yes"/>
      <point x="468" y="191"/>
      <point x="530" y="234"/>
      <point x="599" y="234" type="curve" smooth="yes"/>
      <point x="668" y="234"/>
      <point x="730" y="191"/>
      <point x="730" y="114" type="curve" smooth="yes"/>
      <point x="730" y="49"/>
      <point x="674" y="-6"/>
      <point x="599" y="-6" type="curve" smooth="yes"/>
      <point x="524" y="-6"/>
      <point x="468" y="49"/>
    </contour>
    <contour>
      <point x="517" y="120" type="curve" smooth="yes"/>
      <point x="517" y="68"/>
      <point x="557" y="39"/>
      <point x="599" y="39" type="curve" smooth="yes"/>
      <point x="641" y="39"/>
      <point x="681" y="68"/>
      <point x="681" y="120" type="curve" smooth="yes"/>
      <point x="681" y="166"/>
      <point x="641" y="201"/>
      <point x="599" y="201" type="curve" smooth="yes"/>
      <point x="557" y="201"/>
      <point x="517" y="166"/>
    </contour>
  </outline>
</glyph>
<glyph name="uniFF11" format="1">
  <advance width="580"/>
  <unicode hex="FF11"/>
  <outline>
    <contour>
      <point x="115" y="562" type="line"/>
      <point x="115" y="650" type="line"/>
      <point x="355" y="710" type="line"/>
      <point x="355" y="0" type="line"/>
      <point x="270" y="0" type="line"/>
      <point x="270" y="608" type="line"/>
    </contour>
  </outline>
</glyph>
<glyph name="uniFF12" format="1">
  <advance width="580"/>
  <unicode hex="FF12"/>
  <outline>
    <contour>
      <point x="26" y="0" type="line"/>
      <point x="356" y="353" type="line" smooth="yes"/>
      <point x="402" y="402"/>
      <point x="430" y="450"/>
      <point x="430" y="506" type="curve" smooth="yes"/>
      <point x="430" y="567"/>
      <point x="387" y="631"/>
      <point x="302" y="631" type="curve" smooth="yes"/>
      <point x="212" y="631"/>
      <point x="150" y="566"/>
      <point x="150" y="460" type="curve"/>
      <point x="66" y="460" type="line"/>
      <point x="66" y="609"/>
      <point x="157" y="711"/>
      <point x="302" y="711" type="curve" smooth="yes"/>
      <point x="456" y="711"/>
      <point x="516" y="593"/>
      <point x="516" y="499" type="curve" smooth="yes"/>
      <point x="516" y="427"/>
      <point x="479" y="363"/>
      <point x="424" y="307" type="curve" smooth="yes"/>
      <point x="200" y="80" type="line"/>
      <point x="520" y="80" type="line"/>
      <point x="520" y="0" type="line"/>
    </contour>
  </outline>
</glyph>
<glyph name="uniFF17" format="1">
  <advance width="580"/>
  <unicode hex="FF17"/>
  <outline>
    <contour>
      <point x="58" y="620" type="line"/>
      <point x="58" y="700" type="line"/>
      <point x="548" y="700" type="line"/>
      <point x="212" y="0" type="line"/>
      <point x="124" y="0" type="line"/>
      <point x="420" y="620" type="line"/>
    </contour>
  </outline>
</glyph>
<glyph name="abreve.alt" format="1">
  <advance width="570"/>
  <outline>
    <contour>
      <point x="425" y="460" type="line"/>
      <point x="500" y="460" type="line"/>
      <point x="500" y="0" type="line"/>
      <point x="425" y="0" type="line"/>
    </contour>
    <contour>
      <point x="35" y="230" type="curve" smooth="yes"/>
      <point x="35" y="379"/>
      <point x="138" y="470"/>
      <point x="263" y="470" type="curve" smooth="yes"/>
      <point x="378" y="470"/>
      <point x="456" y="379"/>
      <point x="456" y="230" type="curve" smooth="yes"/>
      <point x="456" y="81"/>
      <point x="378" y="-10"/>
      <point x="263" y="-10" type="curve" smooth="yes"/>
      <point x="138" y="-10"/>
      <point x="35" y="81"/>
    </contour>
    <contour>
      <point x="116" y="230" type="curve" smooth="yes"/>
      <point x="116" y="124"/>
      <point x="188" y="65"/>
      <point x="273" y="65" type="curve" smooth="yes"/>
      <point x="343" y="65"/>
      <point x="420" y="124"/>
      <point x="420" y="230" type="curve" smooth="yes"/>
      <point x="420" y="336"/>
      <point x="343" y="395"/>
      <point x="273" y="395" type="curve" smooth="yes"/>
      <point x="188" y="395"/>
      <point x="116" y="336"/>
    </contour>
    <contour>
      <point x="105" y="670" type="curve"/>
      <point x="176" y="670" type="line"/>
      <point x="176" y="644"/>
      <point x="193" y="595"/>
      <point x="263" y="595" type="curve" smooth="yes"/>
      <point x="333" y="595"/>
      <point x="350" y="644"/>
      <point x="350" y="670" type="curve"/>
      <point x="421" y="670" type="line"/>
      <point x="421" y="601"/>
      <point x="368" y="530"/>
      <point x="263" y="530" type="curve" smooth="yes"/>
      <point x="158" y="530"/>
      <point x="105" y="601"/>
    </contour>
  </outline>
</glyph>
<glyph name="adieresis.alt" format="1">
  <advance width="570"/>
  <outline>
    <contour>
      <point x="425" y="460" type="line"/>
      <point x="500" y="460" type="line"/>
      <point x="500" y="0" type="line"/>
      <point x="425" y="0" type="line"/>
    </contour>
    <contour>
      <point x="35" y="230" type="curve" smooth="yes"/>
      <point x="35" y="379"/>
      <point x="138" y="470"/>
      <point x="263" y="470" type="curve" smooth="yes"/>
      <point x="378" y="470"/>
      <point x="456" y="379"/>
      <point x="456" y="230" type="curve" smooth="yes"/>
      <point x="456" y="81"/>
      <point x="378" y="-10"/>
      <point x="263" y="-10" type="curve" smooth="yes"/>
      <point x="138" y="-10"/>
      <point x="35" y="81"/>
    </contour>
    <contour>
      <point x="116" y="230" type="curve" smooth="yes"/>
      <point x="116" y="124"/>
      <point x="188" y="65"/>
      <point x="273" y="65" type="curve" smooth="yes"/>
      <point x="343" y="65"/>
      <point x="420" y="124"/>
      <point x="420" y="230" type="curve" smooth="yes"/>
      <point x="420" y="336"/>
      <point x="343" y="395"/>
      <point x="273" y="395" type="curve" smooth="yes"/>
      <point x="188" y="395"/>
      <point x="116" y="336"/>
    </contour>
    <contour>
      <point x="328" y="585" type="curve" smooth="yes"/>
      <point x="328" y="615"/>
      <point x="353" y="640"/>
      <point x="383" y="640" type="curve" smooth="yes"/>
      <point x="413" y="640"/>
      <point x="438" y="615"/>
      <point x="438" y="585" type="curve" smooth="yes"/>
      <point x="438" y="555"/>
      <point x="413" y="530"/>
      <point x="383" y="530" type="curve" smooth="yes"/>
      <point x="353" y="530"/>
      <point x="328" y="555"/>
    </contour>
    <contour>
      <point x="128" y="585" type="curve" smooth="yes"/>
      <point x="128" y="615"/>
      <point x="153" y="640"/>
      <point x="183" y="640" type="curve" smooth="yes"/>
      <point x="213" y="640"/>
      <point x="238" y="615"/>
      <point x="238" y="585" type="curve" smooth="yes"/>
      <point x="238" y="555"/>
      <point x="213" y="530"/>
      <point x="183" y="530" type="curve" smooth="yes"/>
      <point x="153" y="530"/>
      <point x="128" y="555"/>
    </contour>
  </outline>
</glyph>
<glyph name="aring.alt" format="1">
  <advance width="570"/>
  <outline>
    <contour>
      <point x="425" y="460" type="line"/>
      <point x="500" y="460" type="line"/>
      <point x="500" y="0" type="line"/>
      <point x="425" y="0" type="line"/>
    </contour>
    <contour>
      <point x="35" y="230" type="curve" smooth="yes"/>
      <point x="35" y="379"/>
      <point x="138" y="470"/>
      <point x="263" y="470" type="curve" smooth="yes"/>
      <point x="378" y="470"/>
      <point x="456" y="379"/>
      <point x="456" y="230" type="curve" smooth="yes"/>
      <point x="456" y="81"/>
      <point x="378" y="-10"/>
      <point x="263" y="-10" type="curve" smooth="yes"/>
      <point x="138" y="-10"/>
      <point x="35" y="81"/>
    </contour>
    <contour>
      <point x="116" y="230" type="curve" smooth="yes"/>
      <point x="116" y="124"/>
      <point x="188" y="65"/>
      <point x="273" y="65" type="curve" smooth="yes"/>
      <point x="343" y="65"/>
      <point x="420" y="124"/>
      <point x="420" y="230" type="curve" smooth="yes"/>
      <point x="420" y="336"/>
      <point x="343" y="395"/>
      <point x="273" y="395" type="curve" smooth="yes"/>
      <point x="188" y="395"/>
      <point x="116" y="336"/>
    </contour>
    <contour>
      <point x="181" y="630" type="curve" smooth="yes"/>
      <point x="181" y="690"/>
      <point x="231" y="730"/>
      <point x="283" y="730" type="curve" smooth="yes"/>
      <point x="335" y="730"/>
      <point x="385" y="690"/>
      <point x="385" y="630" type="curve" smooth="yes"/>
      <point x="385" y="570"/>
      <point x="335" y="530"/>
      <point x="283" y="530" type="curve" smooth="yes"/>
      <point x="231" y="530"/>
      <point x="181" y="570"/>
    </contour>
    <contour>
      <point x="232" y="630" type="curve" smooth="yes"/>
      <point x="232" y="597"/>
      <point x="258" y="577"/>
      <point x="283" y="577" type="curve" smooth="yes"/>
      <point x="308" y="577"/>
      <point x="334" y="597"/>
      <point x="334" y="630" type="curve" smooth="yes"/>
      <point x="334" y="663"/>
      <point x="308" y="683"/>
      <point x="283" y="683" type="curve" smooth="yes"/>
      <point x="258" y="683"/>
      <point x="232" y="663"/>
    </contour>
  </outline>
</glyph>
